<mxfile host="65bd71144e">
    <diagram id="5f3gdfSC-ZhXrY7SUb-o" name="Case Study Grading">
        <mxGraphModel dx="4864" dy="2204" grid="1" gridSize="10" guides="1" tooltips="1" connect="1" arrows="1" fold="1" page="1" pageScale="1" pageWidth="850" pageHeight="1100" math="0" shadow="0">
            <root>
                <mxCell id="0"/>
                <mxCell id="1" parent="0"/>
                <mxCell id="2" value="&lt;div style=&quot;text-align: justify;&quot;&gt;&lt;br&gt;&lt;/div&gt;" style="rounded=0;whiteSpace=wrap;html=1;" vertex="1" parent="1">
                    <mxGeometry x="30" y="1070" width="4630" height="1590" as="geometry"/>
                </mxCell>
                <mxCell id="3" style="edgeStyle=none;curved=1;rounded=0;orthogonalLoop=1;jettySize=auto;html=1;fontSize=12;startSize=8;endSize=8;" edge="1" parent="1" source="4" target="8">
                    <mxGeometry relative="1" as="geometry">
                        <mxPoint x="470" y="1331.6" as="targetPoint"/>
                    </mxGeometry>
                </mxCell>
                <mxCell id="4" value="Candidate UI" style="rounded=0;whiteSpace=wrap;html=1;fontSize=16;" vertex="1" parent="1">
                    <mxGeometry x="250" y="1300" width="120" height="60" as="geometry"/>
                </mxCell>
                <mxCell id="5" style="edgeStyle=none;curved=1;rounded=0;orthogonalLoop=1;jettySize=auto;html=1;fontSize=12;startSize=8;endSize=8;" edge="1" parent="1" source="6" target="4">
                    <mxGeometry relative="1" as="geometry"/>
                </mxCell>
                <mxCell id="6" value="Case Study DB" style="shape=cylinder3;whiteSpace=wrap;html=1;boundedLbl=1;backgroundOutline=1;size=15;fontSize=16;" vertex="1" parent="1">
                    <mxGeometry x="60" y="1270" width="110" height="120" as="geometry"/>
                </mxCell>
                <mxCell id="7" style="edgeStyle=none;curved=1;rounded=0;orthogonalLoop=1;jettySize=auto;html=1;fontSize=12;startSize=8;endSize=8;entryX=0;entryY=0.5;entryDx=0;entryDy=0;entryPerimeter=0;" edge="1" parent="1" source="8" target="10">
                    <mxGeometry relative="1" as="geometry">
                        <mxPoint x="1070" y="1335" as="targetPoint"/>
                    </mxGeometry>
                </mxCell>
                <mxCell id="8" value="Architecture Submission" style="rounded=0;whiteSpace=wrap;html=1;fontSize=16;" vertex="1" parent="1">
                    <mxGeometry x="630" y="1250" width="220" height="170" as="geometry"/>
                </mxCell>
                <mxCell id="9" style="edgeStyle=none;curved=1;rounded=0;orthogonalLoop=1;jettySize=auto;html=1;fontSize=12;startSize=8;endSize=8;" edge="1" parent="1" source="10" target="14">
                    <mxGeometry relative="1" as="geometry">
                        <mxPoint x="1360" y="1495" as="targetPoint"/>
                    </mxGeometry>
                </mxCell>
                <mxCell id="10" value="submission ungraded DB" style="shape=cylinder3;whiteSpace=wrap;html=1;boundedLbl=1;backgroundOutline=1;size=15;fontSize=16;" vertex="1" parent="1">
                    <mxGeometry x="1305" y="1275" width="110" height="120" as="geometry"/>
                </mxCell>
                <mxCell id="11" style="edgeStyle=none;curved=1;rounded=0;orthogonalLoop=1;jettySize=auto;html=1;fontSize=12;startSize=8;endSize=8;" edge="1" parent="1" source="12">
                    <mxGeometry relative="1" as="geometry">
                        <mxPoint x="810" y="1855" as="targetPoint"/>
                    </mxGeometry>
                </mxCell>
                <mxCell id="12" value="Data Retrieval" style="rounded=0;whiteSpace=wrap;html=1;fontSize=16;" vertex="1" parent="1">
                    <mxGeometry x="750" y="1615" width="120" height="60" as="geometry"/>
                </mxCell>
                <mxCell id="13" value="" style="edgeStyle=none;curved=1;rounded=0;orthogonalLoop=1;jettySize=auto;html=1;fontSize=12;startSize=8;endSize=8;entryX=0.501;entryY=0.136;entryDx=0;entryDy=0;entryPerimeter=0;" edge="1" parent="1" source="14" target="22">
                    <mxGeometry relative="1" as="geometry">
                        <mxPoint x="1360" y="1655" as="targetPoint"/>
                    </mxGeometry>
                </mxCell>
                <mxCell id="14" value="Chunk data&amp;nbsp;&lt;div&gt;(if needed)&lt;/div&gt;" style="rounded=0;whiteSpace=wrap;html=1;" vertex="1" parent="1">
                    <mxGeometry x="1300" y="1535" width="120" height="60" as="geometry"/>
                </mxCell>
                <mxCell id="15" style="edgeStyle=none;curved=1;rounded=0;orthogonalLoop=1;jettySize=auto;html=1;fontSize=12;startSize=8;endSize=8;" edge="1" parent="1" source="16" target="12">
                    <mxGeometry relative="1" as="geometry"/>
                </mxCell>
                <mxCell id="16" value="Case Study, Question and Detailed Evaluation Criteria DB" style="shape=cylinder3;whiteSpace=wrap;html=1;boundedLbl=1;backgroundOutline=1;size=15;fontSize=16;" vertex="1" parent="1">
                    <mxGeometry x="490" y="1565" width="190" height="160" as="geometry"/>
                </mxCell>
                <mxCell id="17" style="edgeStyle=none;curved=1;rounded=0;orthogonalLoop=1;jettySize=auto;html=1;fontSize=12;startSize=8;endSize=8;" edge="1" parent="1" source="18">
                    <mxGeometry relative="1" as="geometry">
                        <mxPoint x="300" y="1615" as="targetPoint"/>
                    </mxGeometry>
                </mxCell>
                <mxCell id="18" value="Designated Expert SA&amp;nbsp;" style="shape=umlActor;verticalLabelPosition=bottom;verticalAlign=top;html=1;outlineConnect=0;fontSize=16;" vertex="1" parent="1">
                    <mxGeometry x="170" y="1585" width="30" height="60" as="geometry"/>
                </mxCell>
                <mxCell id="19" style="edgeStyle=none;curved=1;rounded=0;orthogonalLoop=1;jettySize=auto;html=1;fontSize=12;startSize=8;endSize=8;" edge="1" parent="1" source="20" target="16">
                    <mxGeometry relative="1" as="geometry"/>
                </mxCell>
                <mxCell id="20" value="Admin UI" style="whiteSpace=wrap;html=1;aspect=fixed;fontSize=16;" vertex="1" parent="1">
                    <mxGeometry x="280" y="1605" width="80" height="80" as="geometry"/>
                </mxCell>
                <mxCell id="21" style="edgeStyle=none;curved=1;rounded=0;orthogonalLoop=1;jettySize=auto;html=1;entryX=0.637;entryY=-0.003;entryDx=0;entryDy=0;entryPerimeter=0;fontSize=12;startSize=8;endSize=8;" edge="1" parent="1" source="22" target="28">
                    <mxGeometry relative="1" as="geometry"/>
                </mxCell>
                <mxCell id="22" value="Submissions Chunked DB&lt;br&gt;(Question, Submitted Solution , embedding, metadata)" style="shape=cylinder3;whiteSpace=wrap;html=1;boundedLbl=1;backgroundOutline=1;size=15;fontSize=16;" vertex="1" parent="1">
                    <mxGeometry x="1240" y="1835" width="240" height="200" as="geometry"/>
                </mxCell>
                <mxCell id="23" style="edgeStyle=none;curved=1;rounded=0;orthogonalLoop=1;jettySize=auto;html=1;fontSize=12;startSize=8;endSize=8;" edge="1" parent="1" source="24">
                    <mxGeometry relative="1" as="geometry">
                        <mxPoint x="1110" y="2225" as="targetPoint"/>
                    </mxGeometry>
                </mxCell>
                <mxCell id="24" value="Grab each critierion and query against&lt;br&gt;&lt;br&gt;&lt;br&gt;&lt;br&gt;Reliability:&lt;br&gt;Should be load balanced&lt;br&gt;Should be geo redundant&lt;br&gt;Should auto scale&lt;br&gt;Should have DDOS protection&amp;nbsp;&lt;br&gt;&lt;br&gt;And provide a rubric" style="rounded=0;whiteSpace=wrap;html=1;fontSize=16;" vertex="1" parent="1">
                    <mxGeometry x="680" y="1855" width="271" height="340" as="geometry"/>
                </mxCell>
                <mxCell id="25" style="edgeStyle=none;curved=1;rounded=0;orthogonalLoop=1;jettySize=auto;html=1;fontSize=12;startSize=8;endSize=8;" edge="1" parent="1" source="26">
                    <mxGeometry relative="1" as="geometry">
                        <mxPoint x="1410" y="2285" as="targetPoint"/>
                    </mxGeometry>
                </mxCell>
                <mxCell id="26" value="Prompt Orchestrator" style="whiteSpace=wrap;html=1;aspect=fixed;fontSize=16;" vertex="1" parent="1">
                    <mxGeometry x="1110" y="2195" width="180" height="180" as="geometry"/>
                </mxCell>
                <mxCell id="27" style="edgeStyle=none;curved=1;rounded=0;orthogonalLoop=1;jettySize=auto;html=1;entryX=0;entryY=0.5;entryDx=0;entryDy=0;fontSize=12;startSize=8;endSize=8;" edge="1" parent="1" source="28" target="30">
                    <mxGeometry relative="1" as="geometry"/>
                </mxCell>
                <mxCell id="28" value="LLM" style="whiteSpace=wrap;html=1;aspect=fixed;fontSize=16;" vertex="1" parent="1">
                    <mxGeometry x="1405" y="2185" width="170" height="170" as="geometry"/>
                </mxCell>
                <mxCell id="29" style="edgeStyle=orthogonalEdgeStyle;rounded=0;orthogonalLoop=1;jettySize=auto;html=1;" edge="1" parent="1" source="30" target="32">
                    <mxGeometry relative="1" as="geometry">
                        <mxPoint x="2050" y="2265" as="targetPoint"/>
                    </mxGeometry>
                </mxCell>
                <mxCell id="30" value="Produces a rank based on the rubric provided" style="whiteSpace=wrap;html=1;aspect=fixed;fontSize=16;" vertex="1" parent="1">
                    <mxGeometry x="1710" y="2165" width="200" height="200" as="geometry"/>
                </mxCell>
                <mxCell id="31" style="edgeStyle=orthogonalEdgeStyle;rounded=0;orthogonalLoop=1;jettySize=auto;html=1;entryX=0;entryY=0.75;entryDx=0;entryDy=0;" edge="1" parent="1" source="32" target="37">
                    <mxGeometry relative="1" as="geometry"/>
                </mxCell>
                <mxCell id="32" value="&lt;b&gt;&lt;font style=&quot;font-size: 14px;&quot;&gt;AI GRADED CANDIDATE DATABASE&lt;/font&gt;&lt;/b&gt;&lt;div&gt;&lt;b&gt;&lt;font style=&quot;font-size: 14px;&quot;&gt;&lt;br&gt;&lt;/font&gt;&lt;/b&gt;&lt;/div&gt;&lt;div&gt;&lt;b&gt;&lt;font style=&quot;font-size: 14px;&quot;&gt;&lt;br&gt;&lt;/font&gt;&lt;/b&gt;&lt;/div&gt;" style="shape=cylinder3;whiteSpace=wrap;html=1;boundedLbl=1;backgroundOutline=1;size=15;strokeColor=default;align=center;verticalAlign=middle;fontFamily=Helvetica;fontSize=12;fontColor=default;fillColor=default;" vertex="1" parent="1">
                    <mxGeometry x="2110" y="2200" width="120" height="130" as="geometry"/>
                </mxCell>
                <mxCell id="33" style="edgeStyle=orthogonalEdgeStyle;rounded=0;orthogonalLoop=1;jettySize=auto;html=1;entryX=0;entryY=0.5;entryDx=0;entryDy=0;" edge="1" parent="1" target="39">
                    <mxGeometry relative="1" as="geometry">
                        <mxPoint x="3280" y="2270" as="sourcePoint"/>
                        <Array as="points">
                            <mxPoint x="3490" y="2270"/>
                            <mxPoint x="3490" y="2280"/>
                        </Array>
                    </mxGeometry>
                </mxCell>
                <mxCell id="34" value="&lt;b&gt;CANDIDATE&lt;/b&gt;" style="shape=umlActor;verticalLabelPosition=bottom;verticalAlign=top;html=1;outlineConnect=0;" vertex="1" parent="1">
                    <mxGeometry x="4140" y="2110" width="150" height="240" as="geometry"/>
                </mxCell>
                <mxCell id="35" style="edgeStyle=orthogonalEdgeStyle;rounded=0;orthogonalLoop=1;jettySize=auto;html=1;" edge="1" parent="1" source="37" target="42">
                    <mxGeometry relative="1" as="geometry">
                        <mxPoint x="2915" y="2230.0000000000005" as="targetPoint"/>
                    </mxGeometry>
                </mxCell>
                <mxCell id="36" style="edgeStyle=orthogonalEdgeStyle;rounded=0;orthogonalLoop=1;jettySize=auto;html=1;" edge="1" parent="1" source="37" target="40">
                    <mxGeometry relative="1" as="geometry"/>
                </mxCell>
                <mxCell id="37" value="&lt;b&gt;Review Service&lt;br&gt;- Pull in Candidate answer&lt;br&gt;-&amp;nbsp;Review the AI responses&lt;br&gt;- Store AI response feedback from Expert analysis (optional)&lt;br&gt;&amp;nbsp;- Adding additional feedback from Expert&lt;br&gt;&lt;/b&gt;&lt;b style=&quot;border-color: var(--border-color);&quot;&gt;- if the AI threshold filter is not met (optional)&lt;/b&gt;&lt;b&gt;&lt;br&gt;- Email Format&lt;br&gt;&lt;/b&gt;" style="shape=process;whiteSpace=wrap;html=1;backgroundOutline=1;verticalAlign=top;align=left;" vertex="1" parent="1">
                    <mxGeometry x="2320" y="2210" width="470" height="145" as="geometry"/>
                </mxCell>
                <mxCell id="38" style="edgeStyle=orthogonalEdgeStyle;rounded=0;orthogonalLoop=1;jettySize=auto;html=1;" edge="1" parent="1" source="39" target="34">
                    <mxGeometry relative="1" as="geometry"/>
                </mxCell>
                <mxCell id="39" value="&lt;b&gt;CANDIDATE EMAIL SERVICE:&lt;/b&gt;&lt;div&gt;&lt;b&gt;GENERATION / SENDING OF EMAILS&lt;/b&gt;&lt;/div&gt;&lt;div&gt;&lt;ul&gt;&lt;li style=&quot;text-align: left;&quot;&gt;&lt;b&gt;Take Expert Graded Exam record&lt;/b&gt;&lt;/li&gt;&lt;li style=&quot;text-align: left;&quot;&gt;&lt;b&gt;Apply any formatting needed&lt;/b&gt;&lt;/li&gt;&lt;li style=&quot;text-align: left;&quot;&gt;&lt;b&gt;Send to candidateID&#39;s email address&lt;/b&gt;&lt;/li&gt;&lt;/ul&gt;&lt;/div&gt;" style="shape=process;whiteSpace=wrap;html=1;backgroundOutline=1;verticalAlign=top;align=center;" vertex="1" parent="1">
                    <mxGeometry x="3700" y="2210" width="330" height="140" as="geometry"/>
                </mxCell>
                <mxCell id="40" value="&lt;span style=&quot;font-size: 14px;&quot;&gt;&lt;b&gt;AI Response&lt;br&gt;Feedback(Where Experts don&#39;t agree with AI grading)&lt;br&gt;&lt;/b&gt;&lt;/span&gt;" style="shape=cylinder3;whiteSpace=wrap;html=1;boundedLbl=1;backgroundOutline=1;size=15;strokeColor=default;align=center;verticalAlign=middle;fontFamily=Helvetica;fontSize=12;fontColor=default;fillColor=default;" vertex="1" parent="1">
                    <mxGeometry x="2460" y="2420" width="120" height="130" as="geometry"/>
                </mxCell>
                <mxCell id="41" style="edgeStyle=orthogonalEdgeStyle;rounded=0;orthogonalLoop=1;jettySize=auto;html=1;entryX=0.365;entryY=0.993;entryDx=0;entryDy=0;entryPerimeter=0;" edge="1" parent="1" source="42" target="44">
                    <mxGeometry relative="1" as="geometry">
                        <mxPoint x="3180" y="2070" as="targetPoint"/>
                    </mxGeometry>
                </mxCell>
                <mxCell id="42" value="&lt;div&gt;Test 2&lt;/div&gt;&lt;div&gt;grade and&amp;nbsp;&lt;/div&gt;&lt;div&gt;analysis&lt;/div&gt;" style="shape=cylinder3;whiteSpace=wrap;html=1;boundedLbl=1;backgroundOutline=1;size=15;" vertex="1" parent="1">
                    <mxGeometry x="3070" y="2205" width="230" height="160" as="geometry"/>
                </mxCell>
                <mxCell id="43" style="edgeStyle=orthogonalEdgeStyle;rounded=0;orthogonalLoop=1;jettySize=auto;html=1;entryX=0;entryY=0.5;entryDx=0;entryDy=0;entryPerimeter=0;" edge="1" parent="1" source="44" target="45">
                    <mxGeometry relative="1" as="geometry">
                        <mxPoint x="3450" y="2005" as="targetPoint"/>
                    </mxGeometry>
                </mxCell>
                <mxCell id="44" value="Pass Certification" style="rounded=0;whiteSpace=wrap;html=1;" vertex="1" parent="1">
                    <mxGeometry x="3180" y="1975" width="120" height="60" as="geometry"/>
                </mxCell>
                <mxCell id="45" value="Certification Database" style="shape=cylinder3;whiteSpace=wrap;html=1;boundedLbl=1;backgroundOutline=1;size=15;" vertex="1" parent="1">
                    <mxGeometry x="3480" y="1965" width="180" height="135" as="geometry"/>
                </mxCell>
                <mxCell id="46" value="&lt;font style=&quot;font-size: 24px;&quot;&gt;Option 1&lt;/font&gt;" style="text;html=1;strokeColor=none;fillColor=none;align=center;verticalAlign=middle;whiteSpace=wrap;rounded=0;" vertex="1" parent="1">
                    <mxGeometry x="4460" y="1070" width="200" height="30" as="geometry"/>
                </mxCell>
            </root>
        </mxGraphModel>
    </diagram>
</mxfile>